<mxfile host="drawio-plugin" modified="2023-11-02T09:57:47.451Z" agent="5.0 (Macintosh; Intel Mac OS X 10_15_7) AppleWebKit/537.36 (KHTML, like Gecko) Chrome/111.0.0.0 Safari/537.36" etag="tj6IeNVE2lDDVXR819Tu" version="20.5.3" type="embed"><diagram id="zujzl2PPvhnFZI0LvEB5" name="Page-1"><mxGraphModel dx="748" dy="1873" grid="1" gridSize="10" guides="1" tooltips="1" connect="1" arrows="1" fold="1" page="1" pageScale="1" pageWidth="850" pageHeight="1100" math="0" shadow="0"><root><mxCell id="0"/><mxCell id="1" parent="0"/><mxCell id="2" value="IStoreController&lt;br&gt;(PurchasingManager)&lt;br&gt;&lt;br&gt;- IStore&lt;br&gt;&lt;br&gt;- getProducts()&lt;br&gt;- initiatePurchase()&lt;br&gt;- confirmPendingPurchase()" style="rounded=0;whiteSpace=wrap;html=1;" parent="1" vertex="1"><mxGeometry x="333" y="480" width="185" height="130" as="geometry"/></mxCell><mxCell id="9" style="edgeStyle=orthogonalEdgeStyle;rounded=0;orthogonalLoop=1;jettySize=auto;html=1;fillColor=#d80073;strokeColor=#A50040;" parent="1" source="3" target="8" edge="1"><mxGeometry relative="1" as="geometry"/></mxCell><mxCell id="3" value="IStoreListener" style="rounded=0;whiteSpace=wrap;html=1;" parent="1" vertex="1"><mxGeometry x="220" y="180" width="120" height="60" as="geometry"/></mxCell><mxCell id="18" style="edgeStyle=orthogonalEdgeStyle;rounded=0;orthogonalLoop=1;jettySize=auto;html=1;" parent="1" source="5" target="17" edge="1"><mxGeometry relative="1" as="geometry"/></mxCell><mxCell id="20" style="edgeStyle=orthogonalEdgeStyle;rounded=0;orthogonalLoop=1;jettySize=auto;html=1;" parent="1" source="5" target="19" edge="1"><mxGeometry relative="1" as="geometry"/></mxCell><mxCell id="5" value="IExtensionProvider&lt;br&gt;&lt;br&gt;- getExtension()" style="rounded=0;whiteSpace=wrap;html=1;" parent="1" vertex="1"><mxGeometry x="140" y="480" width="120" height="90" as="geometry"/></mxCell><mxCell id="10" style="edgeStyle=orthogonalEdgeStyle;rounded=0;orthogonalLoop=1;jettySize=auto;html=1;entryX=0.5;entryY=0;entryDx=0;entryDy=0;fillColor=#d80073;strokeColor=#A50040;" parent="1" source="8" target="5" edge="1"><mxGeometry relative="1" as="geometry"/></mxCell><mxCell id="11" style="edgeStyle=orthogonalEdgeStyle;rounded=0;orthogonalLoop=1;jettySize=auto;html=1;fillColor=#d80073;strokeColor=#A50040;" parent="1" source="8" target="2" edge="1"><mxGeometry relative="1" as="geometry"/></mxCell><mxCell id="8" value="&lt;meta charset=&quot;utf-8&quot;&gt;&lt;span style=&quot;color: rgb(240, 240, 240); font-family: Helvetica; font-size: 12px; font-style: normal; font-variant-ligatures: normal; font-variant-caps: normal; font-weight: 400; letter-spacing: normal; orphans: 2; text-align: center; text-indent: 0px; text-transform: none; widows: 2; word-spacing: 0px; -webkit-text-stroke-width: 0px; background-color: rgb(42, 42, 42); text-decoration-thickness: initial; text-decoration-style: initial; text-decoration-color: initial; float: none; display: inline !important;&quot;&gt;Return from callback&lt;/span&gt;" style="ellipse;whiteSpace=wrap;html=1;" parent="1" vertex="1"><mxGeometry x="220" y="340" width="120" height="80" as="geometry"/></mxCell><mxCell id="37" style="edgeStyle=orthogonalEdgeStyle;rounded=0;orthogonalLoop=1;jettySize=auto;html=1;entryX=0.5;entryY=0;entryDx=0;entryDy=0;fillColor=#d80073;strokeColor=#A50040;" edge="1" parent="1" source="12" target="31"><mxGeometry relative="1" as="geometry"/></mxCell><mxCell id="39" style="edgeStyle=orthogonalEdgeStyle;rounded=0;orthogonalLoop=1;jettySize=auto;html=1;entryX=0.5;entryY=0;entryDx=0;entryDy=0;fillColor=#d80073;strokeColor=#A50040;" edge="1" parent="1" source="12" target="3"><mxGeometry relative="1" as="geometry"/></mxCell><mxCell id="12" value="StoreBridge&lt;br&gt;&lt;br&gt;- IExtensionProvider&lt;br&gt;- IStoreController&lt;br&gt;- IStoreListener" style="rounded=0;whiteSpace=wrap;html=1;" parent="1" vertex="1"><mxGeometry x="450" y="-120" width="120" height="120" as="geometry"/></mxCell><mxCell id="17" value="IAppleExtensions&lt;br&gt;&lt;br&gt;- restoreTransaction()&lt;br&gt;- getProductDetails()&lt;br&gt;- refresh()&lt;br&gt;..." style="rounded=0;whiteSpace=wrap;html=1;" parent="1" vertex="1"><mxGeometry x="20" y="740" width="140" height="100" as="geometry"/></mxCell><mxCell id="19" value="IGooglePlayStoreExtensions&lt;br&gt;&lt;br&gt;- restoreTransaction()&lt;br&gt;- getProductJson()&lt;br&gt;..." style="rounded=0;whiteSpace=wrap;html=1;" parent="1" vertex="1"><mxGeometry x="200" y="740" width="190" height="90" as="geometry"/></mxCell><mxCell id="30" style="edgeStyle=orthogonalEdgeStyle;rounded=0;orthogonalLoop=1;jettySize=auto;html=1;entryX=1;entryY=0.5;entryDx=0;entryDy=0;fillColor=#60a917;strokeColor=#2D7600;" edge="1" parent="1" source="24" target="12"><mxGeometry relative="1" as="geometry"/></mxCell><mxCell id="36" style="edgeStyle=orthogonalEdgeStyle;rounded=0;orthogonalLoop=1;jettySize=auto;html=1;entryX=0.5;entryY=0;entryDx=0;entryDy=0;fillColor=#d80073;strokeColor=#A50040;" edge="1" parent="1" source="24" target="32"><mxGeometry relative="1" as="geometry"/></mxCell><mxCell id="41" style="edgeStyle=orthogonalEdgeStyle;rounded=0;orthogonalLoop=1;jettySize=auto;html=1;entryX=0.5;entryY=0;entryDx=0;entryDy=0;fillColor=#d80073;strokeColor=#A50040;" edge="1" parent="1" source="24" target="40"><mxGeometry relative="1" as="geometry"/></mxCell><mxCell id="24" value="ConfigurationBuilder&lt;br&gt;&lt;br&gt;- PurchaseFactory" style="rounded=0;whiteSpace=wrap;html=1;" parent="1" vertex="1"><mxGeometry x="720" y="-90" width="120" height="60" as="geometry"/></mxCell><mxCell id="27" value="" style="group" vertex="1" connectable="0" parent="1"><mxGeometry x="20" y="10" width="140" height="50" as="geometry"/></mxCell><mxCell id="14" value="" style="endArrow=none;html=1;rounded=0;fillColor=#d80073;strokeColor=#A50040;" parent="27" edge="1"><mxGeometry width="50" height="50" relative="1" as="geometry"><mxPoint y="50" as="sourcePoint"/><mxPoint x="50" as="targetPoint"/></mxGeometry></mxCell><mxCell id="15" value="Khởi tạo" style="text;strokeColor=none;fillColor=none;align=left;verticalAlign=middle;spacingLeft=4;spacingRight=4;overflow=hidden;points=[[0,0.5],[1,0.5]];portConstraint=eastwest;rotatable=0;whiteSpace=wrap;html=1;" parent="27" vertex="1"><mxGeometry x="60" y="10" width="80" height="30" as="geometry"/></mxCell><mxCell id="28" value="" style="group" vertex="1" connectable="0" parent="1"><mxGeometry x="20" y="70" width="140" height="50" as="geometry"/></mxCell><mxCell id="25" value="" style="endArrow=none;html=1;rounded=0;fillColor=#60a917;strokeColor=#2D7600;" edge="1" parent="28"><mxGeometry width="50" height="50" relative="1" as="geometry"><mxPoint y="50" as="sourcePoint"/><mxPoint x="50" as="targetPoint"/></mxGeometry></mxCell><mxCell id="26" value="Truyền" style="text;strokeColor=none;fillColor=none;align=left;verticalAlign=middle;spacingLeft=4;spacingRight=4;overflow=hidden;points=[[0,0.5],[1,0.5]];portConstraint=eastwest;rotatable=0;whiteSpace=wrap;html=1;" vertex="1" parent="28"><mxGeometry x="60" y="10" width="80" height="30" as="geometry"/></mxCell><mxCell id="44" style="edgeStyle=orthogonalEdgeStyle;rounded=0;orthogonalLoop=1;jettySize=auto;html=1;entryX=0.5;entryY=0;entryDx=0;entryDy=0;dashed=1;" edge="1" parent="1" source="31" target="2"><mxGeometry relative="1" as="geometry"/></mxCell><mxCell id="31" value="PurchasingManager&lt;br&gt;&lt;br&gt;- IStore" style="rounded=0;whiteSpace=wrap;html=1;" vertex="1" parent="1"><mxGeometry x="480" y="180" width="120" height="60" as="geometry"/></mxCell><mxCell id="42" style="edgeStyle=orthogonalEdgeStyle;rounded=0;orthogonalLoop=1;jettySize=auto;html=1;entryX=0;entryY=0.5;entryDx=0;entryDy=0;fillColor=#60a917;strokeColor=#2D7600;" edge="1" parent="1" source="32" target="40"><mxGeometry relative="1" as="geometry"/></mxCell><mxCell id="32" value="PurchaseFactory" style="rounded=0;whiteSpace=wrap;html=1;" vertex="1" parent="1"><mxGeometry x="700" y="50" width="120" height="60" as="geometry"/></mxCell><mxCell id="34" style="edgeStyle=orthogonalEdgeStyle;rounded=0;orthogonalLoop=1;jettySize=auto;html=1;entryX=1;entryY=0.5;entryDx=0;entryDy=0;fillColor=#60a917;strokeColor=#2D7600;" edge="1" parent="1" source="33" target="31"><mxGeometry relative="1" as="geometry"/></mxCell><mxCell id="46" style="edgeStyle=orthogonalEdgeStyle;rounded=0;orthogonalLoop=1;jettySize=auto;html=1;dashed=1;fillColor=#d80073;strokeColor=#A50040;" edge="1" parent="1" source="33" target="45"><mxGeometry relative="1" as="geometry"/></mxCell><mxCell id="33" value="IStore" style="rounded=0;whiteSpace=wrap;html=1;" vertex="1" parent="1"><mxGeometry x="700" y="140" width="120" height="60" as="geometry"/></mxCell><mxCell id="43" style="edgeStyle=orthogonalEdgeStyle;rounded=0;orthogonalLoop=1;jettySize=auto;html=1;fillColor=#d80073;strokeColor=#A50040;" edge="1" parent="1" source="40" target="33"><mxGeometry relative="1" as="geometry"><Array as="points"><mxPoint x="1000" y="170"/></Array></mxGeometry></mxCell><mxCell id="40" value="StandardPurchasingModule&lt;br&gt;&lt;br&gt;- instantiateStore()&lt;br&gt;- JsonStore&lt;br&gt;- AppleStoreImpl" style="rounded=0;whiteSpace=wrap;html=1;" vertex="1" parent="1"><mxGeometry x="910" y="50" width="170" height="90" as="geometry"/></mxCell><mxCell id="50" style="edgeStyle=orthogonalEdgeStyle;rounded=0;orthogonalLoop=1;jettySize=auto;html=1;fillColor=#1ba1e2;strokeColor=#006EAF;endArrow=none;endFill=0;" edge="1" parent="1" source="45" target="49"><mxGeometry relative="1" as="geometry"/></mxCell><mxCell id="45" value="JsonStore&lt;br&gt;&lt;br&gt;- INativeStore" style="rounded=0;whiteSpace=wrap;html=1;" vertex="1" parent="1"><mxGeometry x="700" y="260" width="120" height="60" as="geometry"/></mxCell><mxCell id="49" value="AppleStoreImpl" style="rounded=0;whiteSpace=wrap;html=1;" vertex="1" parent="1"><mxGeometry x="880" y="260" width="120" height="60" as="geometry"/></mxCell><mxCell id="62" style="edgeStyle=orthogonalEdgeStyle;rounded=0;orthogonalLoop=1;jettySize=auto;html=1;exitX=1;exitY=0.5;exitDx=0;exitDy=0;endArrow=none;endFill=0;fillColor=#1ba1e2;strokeColor=#006EAF;" edge="1" parent="1" source="51" target="60"><mxGeometry relative="1" as="geometry"/></mxCell><mxCell id="63" style="edgeStyle=orthogonalEdgeStyle;rounded=0;orthogonalLoop=1;jettySize=auto;html=1;entryX=0;entryY=0.5;entryDx=0;entryDy=0;endArrow=none;endFill=0;fillColor=#1ba1e2;strokeColor=#006EAF;" edge="1" parent="1" source="51" target="61"><mxGeometry relative="1" as="geometry"/></mxCell><mxCell id="64" style="edgeStyle=orthogonalEdgeStyle;rounded=0;orthogonalLoop=1;jettySize=auto;html=1;exitX=0.5;exitY=0;exitDx=0;exitDy=0;entryX=0.5;entryY=1;entryDx=0;entryDy=0;endArrow=classic;endFill=1;fillColor=#1ba1e2;strokeColor=#006EAF;" edge="1" parent="1" source="51" target="45"><mxGeometry relative="1" as="geometry"/></mxCell><mxCell id="51" value="INativeStore" style="rounded=0;whiteSpace=wrap;html=1;" vertex="1" parent="1"><mxGeometry x="700" y="370" width="120" height="60" as="geometry"/></mxCell><mxCell id="59" value="" style="group" vertex="1" connectable="0" parent="1"><mxGeometry x="20" y="140" width="140" height="50" as="geometry"/></mxCell><mxCell id="54" value="" style="endArrow=none;html=1;rounded=0;fillColor=#1ba1e2;strokeColor=#006EAF;" edge="1" parent="59"><mxGeometry width="50" height="50" relative="1" as="geometry"><mxPoint y="50" as="sourcePoint"/><mxPoint x="50" as="targetPoint"/></mxGeometry></mxCell><mxCell id="55" value="Kế thừa" style="text;strokeColor=none;fillColor=none;align=left;verticalAlign=middle;spacingLeft=4;spacingRight=4;overflow=hidden;points=[[0,0.5],[1,0.5]];portConstraint=eastwest;rotatable=0;whiteSpace=wrap;html=1;" vertex="1" parent="59"><mxGeometry x="60" y="10" width="80" height="30" as="geometry"/></mxCell><mxCell id="60" value="AndroidJavaStore" style="rounded=0;whiteSpace=wrap;html=1;" vertex="1" parent="1"><mxGeometry x="880" y="370" width="120" height="60" as="geometry"/></mxCell><mxCell id="61" value="INativeAppleStore" style="rounded=0;whiteSpace=wrap;html=1;" vertex="1" parent="1"><mxGeometry x="880" y="460" width="120" height="60" as="geometry"/></mxCell></root></mxGraphModel></diagram></mxfile>